# xmcd
#
# Track frame offsets:
#	150
#	20578
#	35054
#	56886
#	72466
#	89227
#	105427
#	122369
#	137467
#	158130
#	178854
#
# Disc length: 2645 seconds
#
# Revision: 1
# Processed by: cddbd v1.5.1PL0 Copyright (c) Steve Scherf et al.
# Submitted via: audiograbber 1.83.01
#
DISCID=9b0a530b
DTITLE=Rob Skane - SeflNoise
DYEAR=2002
DGENRE=Blues
TTITLE0=How Many More Times
TTITLE1=Into Your Soul
TTITLE2=$15.00 Room
TTITLE3=Jennifer And James
TTITLE4=Hard To Understand
TTITLE5=It's A Great Day
TTITLE6=This Ain't Cool
TTITLE7=Troubadour Extraordinaire
TTITLE8=Mercer Street Breakdown
TTITLE9=The Compromising Situation
TTITLE10=Kiss In 3D
EXTD=
EXTT0=
EXTT1=
EXTT2=
EXTT3=
EXTT4=
EXTT5=
EXTT6=
EXTT7=
EXTT8=
EXTT9=
EXTT10=
PLAYORDER=
